<?xml version="1.0" encoding="utf-8"?>
<svg version="1.1" xmlns:xlink="http://www.w3.org/1999/xlink" width="19px" height="19px" xmlns="http://www.w3.org/2000/svg">
  <g transform="matrix(1 0 0 1 -195 -412 )">
    <path d="M 10.5663541259766 4.38145638769531  L 10.5663541259766 0.900259224609375  C 10.5663541259766 0.113993876953125  11.5528394697266 -0.359519094726563  12.1008868808594 0.34198159375  L 18.8075257509766 8.93974939355469  C 19.0627530530928 9.26872306426159  19.0627530530928 9.72879244452748  18.8075257509766 10.0577661152344  L 12.1008868808594 18.6584568535156  C 11.5528394697266 19.3584960820313  10.5663541259766 18.8849831103516  10.5663541259766 18.0987177626953  L 10.5663541259766 14.6160591396484  L 1.39130969726562 14.6160591396484  C 0.588968290039062 14.6160591396484  0 13.9057896914063  0 13.0888336845703  L 0 5.91014330273438  C 0 5.09318729589844  0.588968290039062 4.38145638769531  1.39130969726562 4.38145638769531  L 10.5663541259766 4.38145638769531  Z " fill-rule="nonzero" fill="#77a2ff" stroke="none" transform="matrix(1 0 0 1 195 412 )" />
  </g>
</svg>