<?xml version="1.0" encoding="utf-8"?>
<svg version="1.1" xmlns:xlink="http://www.w3.org/1999/xlink" width="58px" height="48px" xmlns="http://www.w3.org/2000/svg">
  <g transform="matrix(1 0 0 1 -97 -397 )">
    <path d="M 34.8095093792615 26.8254199343231  C 38.4067179185752 26.1200003134645  41.9170373829371 25.4163620830834  45.4273567997815 24.7127238527024  C 45.385650047606 24.5826843936225  45.385650047606 24.5381503136108  45.3404677248297 24.4936162335991  C 44.5289235813621 22.7354113041761  43.6721971151181 20.9754250329847  42.860652924133 19.2172201035618  C 42.7303192879464 18.9108257149126  42.5183099089507 18.9108257149126  42.2611181596611 18.99633114269  C 40.5024828568793 19.5253958339794  38.7490609337575 20.0081451034886  36.9904256784931 20.4926757634755  C 36.7367094998044 20.5817438747897  36.5646691114424 20.7153461148248  36.5212245502078 20.9736436425071  C 36.1389125443917 22.295414724201  35.7513871589156 23.5708703841147  35.3655995824987 24.8890787335625  C 35.1952969556784 25.5054301943977  35.0215187582572 26.1645343934762  34.8095093792615 26.8254199343231  Z M 19.6108687925631 4.53344781686535  L 19.6073932694797 4.53344781686536  C 19.7342513350654 4.66348727594529  19.8211404575347 4.708021355957  19.861109400651 4.79708946727126  L 35.5411155414615 17.5908359749872  C 35.6679736070472 17.7244381663132  35.968609870054 17.7689722463249  36.1806192965672 17.7244382150223  C 37.3831643961118 17.4162624846047  38.5822338775381 17.0653340159438  39.7813034064818 16.7126242055145  C 39.9498682717604 16.6680901255028  40.1236464216641 16.5790220141885  40.3808381709537 16.5380506664229  C 39.0948795670581 15.5262367056242  37.8958100381144 14.6017094656623  36.6967405091706 13.6344295848753  C 32.5434417666197 10.3353459546552  28.3901429765513 7.08435913669275  24.2368442340003 3.78349416470416  C 24.1065105978138 3.69977012740437  23.894501218818 3.56260520383237  23.7676431532324 3.56260515512323  C 22.3947954268675 3.82980953777518  21.0671300707965 4.18073800643604  19.6108687925631 4.53344781686535  Z M 31.9821381837224 26.1645343934762  L 31.9804004221807 26.1645343934762  C 32.0672894971326 25.9418640421268  32.1541786196019 25.8136059735245  32.1541786196019 25.6835664657354  C 32.6685620706636 23.9663328840781  33.137763198949 22.2063465641776  33.6973289252696 20.4926757634755  C 33.8658937905482 20.0117078357347  33.7372979159034 19.7890375330944  33.3532481485456 19.4808617539677  C 28.984464456398 15.9216992055877  24.615680716733 12.3589739249616  20.2903415383026 8.84078267563812  C 19.1781611318281 7.91803682615373  18.0659806778363 7.03982505668105  16.950324700761 6.11529786542821  C 16.8669111488925 6.24711871498574  16.8234666351753 6.38072090631171  16.7800220739407 6.51254170716009  C 16.1370427482342 8.13714444525707  15.4940634700451 9.76530991560008  14.8093773921631 11.393475337234  C 14.6390747653428 11.7889378371974  14.6825193265775 12.0080454563007  15.0266001508189 12.2699057649382  C 19.6073932694797 16.0072045846559  24.1899241496823 19.7872561426168  28.7724550298848 23.5708703841147  C 29.841190922642 24.4045481222848  30.8664822066471 25.2863226240035  31.9856137543233 26.1645343934762  L 31.9821381837224 26.1645343934762  Z M 25.5193273148125 0.970722536239305  L 25.5210650763542 0.972503878007753  C 26.6332454828286 1.80974429971477  37.8940722290552 10.8234392981789  44.1448737664868 15.7898783560301  C 44.4055410388598 16.0125487073795  44.6140748947722 16.2708462837709  44.7444085309587 16.5380506664229  C 46.0720738870297 19.3526036366562  47.4449216133946 22.1671566068895  48.7274046466894 25.024462315366  C 49.1966057749747 26.0772476239304  48.8142937216412 27.0017748638923  47.5283351177456 27.2191010925181  C 45.6862863106128 27.5718109029474  43.8007929422454 27.9672734029108  41.9639574672552 28.3199832133402  C 39.652707531837 28.7617611350837  37.337982025818 29.1999763732904  35.0667010810336 29.6845069845681  C 34.4237217553271 29.8145464436481  33.8259247999144 29.9036146036715  33.1829455217253 30.0764067522855  C 32.6268553184881 30.2545430236232  32.2445433126721 30.0372167949974  31.857017927196 29.7290410645798  L 25.5175895057533 24.5399316553792  C 21.0619166911364 20.8881382634389  16.6514262468133 17.2363448227894  12.1992290027973 13.5898955048636  C 11.469360602139 12.9753253857968  11.3425025365533 12.4890133840415  11.6865833132773 11.6108016145689  C 12.7553192060345 8.97438491567323  13.8275306218752 6.29165274628831  14.8528219533977 3.65523604739267  C 15.078733614797 2.89281285672493  15.7095484196417 2.32812089168434  16.4776480493922 2.2016441161413  C 18.2832034364921 1.8097443484239  21.7048960168429 0.926188456227603  23.5035002627411 0.534288688510203  C 24.1030350272129 0.400686497184233  24.2733376540332 0.311618337160829  24.7025697916848 0.400686497184233  C 25.0449128068671 0.534288688510203  25.258659994922 0.796148997147664  25.5158517442116 0.970722536239305  L 25.5193273148125 0.970722536239305  Z M 23.6755406986205 44.5927309643824  L 23.6790162692214 44.5873868416587  C 27.4013451125791 43.842777263512  31.0454737837283 43.0946049531193  34.679175743075 42.3446513009581  C 33.7407735340217 39.8382740611424  32.8388646974839 37.420964932641  31.9004624409131 35.0054371946171  C 29.849879777868 35.6021937011629  27.8079860650837 36.2327960422731  25.7765190165846 36.89368158312  C 25.5915676553123 36.951191154791  25.4468340270601 37.0995544847842  25.3907314401677 37.2891441317926  C 24.8346412369305 39.6601377898047  24.2750754630924 42.0810096505522  23.6755406986205 44.5927309643824  Z M 17.8939402894743 41.0691956410444  C 18.9244449531394 41.9064360627514  19.9097672940282 42.8309633027134  20.9785031867854 43.7982432322095  C 21.1088368229719 43.2228631191399  21.1939881363821 42.6973611113874  21.3208462019677 42.2146118418782  L 22.6068048058633 36.6745740127258  C 22.6936938808151 36.4127137040883  22.6068048058633 36.2808928545308  22.4330266084421 36.1027565831931  C 17.5515972267745 31.6600381426168  12.7136124063416 27.1781297447524  7.87562758590861 22.7371926946537  C 7.23264826020208 22.1671566555986  6.58966898201303 21.5508051947634  5.90672071319019 20.9362350269875  C 5.00307411511067 23.1754078841512  4.14808541040838 25.3736093935493  3.29309670570608 27.5718109029474  C 3.24965214447142 27.7054130942734  3.37998578065792 27.9690547933884  3.46687490312724 28.1026569360053  C 4.19152997164303 28.8062951663863  4.96484288601858 29.4618366332187  5.73294251576904 30.1672562540774  L 17.8939402894743 41.0691956410444  Z M 8.12413043245477 19.0836179122358  L 8.12934376459734 19.0836179122358  C 8.90265672649036 19.7890375330944  9.58908056591407 20.4481416834638  10.3137356344299 21.1090272243107  C 12.7987637672692 23.396296845023  15.325498652284 25.6800037821985  17.8105267376058 28.0118074829225  C 19.9514740462037 29.9909013732173  22.1323903454354 31.966432531266  24.2733376540332 33.9900605015724  C 24.4888226036299 34.1646340406641  24.6591252304502 34.2127308529218  24.9597615409744 34.1200999606524  C 27.2710114763926 33.4164617302713  29.5839991733524 32.6754148356615  31.9386936700052 32.0109666112777  C 33.2246522739008 31.6155041113143  33.780742477138 31.966432531266  34.2499436054234 33.1563827634023  C 35.452488704968 36.362835501353  36.6498204248526 39.5336610142617  37.8488899062788 42.7401138009215  C 38.2781220439304 43.8801858790317  37.8488899062788 44.7192076912163  36.6932649385697 44.9828493903313  C 32.5816729481943 45.8165271285014  28.5152632805952 46.6502048179624  24.4036712902197 47.489226630147  C 23.5903893376929 47.6638001692386  22.8170764233174 47.8401550500987  22.0055322798497 47.9701945091787  C 21.5763001421981 48.0592626204929  21.1922503273229 47.8846890814013  20.8499073121406 47.5782947414613  L 13.0125109078066 40.5864463715351  C 9.66728073812247 37.5937571299642  6.37070846181552 34.6064119624077  3.03069162427391 31.6582568008484  C 2.21914748080627 30.9546185704674  1.44583451891325 30.2509802913772  0.632552613903909 29.508152103708  C -0.0521334639781014 28.8900192523952  -0.139022538929942 28.407269982886  0.203320476252327 27.5308395551817  C 1.44583451891325 24.4045481222848  2.68834860909164 21.2836007634023  3.88741813803538 18.205406094054  C 4.08726304368684 17.642495519491  4.5303974637419 17.2042802812843  5.08648761946164 17.0190185941637  C 6.7999405994671 16.4935166351203  8.51165577041339 15.9216992055877  10.2233709413597 15.3926345142983  C 10.8663502670662 15.1699641629489  11.4658849840206 15.2180609752066  11.9385616829068 15.7880970142617  C 12.6249855223305 16.5790220141885  12.2809046980891 17.768972295034  11.2521378434831 18.1608720627514  C 10.4405937000155 18.469047793169  9.5838672337715 18.6917181445184  8.76710971064382 18.9553597949243  C 8.59854484536523 18.9108257149126  8.38132213422689 18.999893874936  8.12413043245477 19.0836179122358  Z M 43.6287525538834 40.5864463715351  L 43.6304903154251 40.5846649810576  C 47.1825165319625 39.8364926706648  50.6963115669252 39.0473490125064  54.2101065543705 38.2991767508228  C 53.0544815866615 36.1437279309588  51.9336122774436 34.0791286615958  50.8266452031117 32.0109666112777  C 50.7832006418771 31.8809271521978  50.5225333695041 31.7882962599283  50.3539685042255 31.8363930721861  C 48.7673736373231 32.1445688026037  47.1390719707278 32.4954972712645  45.557690435968 32.8001102694361  C 45.2153474207858 32.8891783807504  45.0884893076827 33.0227806207855  45.0016002327308 33.3754903825057  C 44.7409329603578 34.7400141537336  44.4420344588927 36.1455092727273  44.1848427571206 37.5082517021868  C 44.016277891842 38.4737502412053  43.8424997419383 39.4855642507131  43.6287525538834 40.5864463715351  Z M 49.6675446648018 28.9345533324069  C 50.2670794292737 28.8900192523952  50.8666141937455 28.800951141081  51.4661489582174 28.6709116332919  C 52.1091282839239 28.6709116332919  52.4949158603408 29.0236214437212  52.7938143142885 29.5936574827763  C 54.079772918184 31.966432531266  55.3657315220796 34.3873043433043  56.6464767938326 36.7600793917941  C 56.9471130568394 37.3301154308491  57.2460115583045 37.8609615126161  57.5501233919121 38.4292162099027  C 58.1062135951493 39.5300983307248  57.6317991347214 40.5419122915234  56.4779119760715 40.7628012523952  C 52.9641169411087 41.5056294887735  49.4537975242643 42.2983358304688  45.9417402508433 43.0482895313391  C 44.6158126563139 43.3546839199883  43.242964929949 43.7073937304176  41.9187751444788 43.8819672695093  C 41.1020176688686 44.0155694608352  40.2470289641663 43.1373576913625  40.4208071615875 42.1682963713889  L 42.2176736459439 33.1118487320998  C 42.3445317115295 32.5418126930447  42.4314208339988 32.0109666112777  42.5183099089507 31.4409305722226  C 42.6451679745363 30.6927582618299  43.1178446734225 30.2990771036349  43.8424996944209 30.1209408322972  C 45.771437624023 29.7290410645798  47.7003755061076 29.3317971741388  49.6675446648018 28.9345533324069  Z " fill-rule="nonzero" fill="#77a2ff" stroke="none" transform="matrix(1 0 0 1 97 397 )" />
  </g>
</svg>