<?xml version="1.0" encoding="utf-8"?>
<svg version="1.1" xmlns:xlink="http://www.w3.org/1999/xlink" width="65px" height="61px" xmlns="http://www.w3.org/2000/svg">
  <g transform="matrix(1 0 0 1 -857 -391 )">
    <path d="M 64.6024465080275 24.2963398443627  L 32.7981651376147 0.0558170183823531  L 31.0171254071101 1.3316339620098  L 0.485015315366972 24.2963398443627  L 3.53822632454128 27.103137254902  L 8 24.4239215686275  L 8 60.7847058823529  L 11 60.7847058823529  L 11 21.7447058823529  L 32.7981651376147 5.15908494240196  L 55 22.6377778026961  L 55 60.7847058823529  L 59 60.7847058823529  L 59 25.3169934889706  L 61.5492354988532 27.103137254902  L 64.6024465080275 24.2963398443627  Z M 24.9107033887615 32.7167320012255  C 24.9107033887615 31.3133333333333  23.7657492603211 30.1650980392157  22.366360831422 30.1650980392157  L 19.8220183486239 30.1650980392157  C 18.4226299942661 30.1650980392157  17.2776758658257 31.3133333333333  17.2776758658257 32.7167320012255  L 17.2776758658257 35.2683660379902  C 17.2776758658257 36.6717647058823  18.4226299942661 37.82  19.8220183486239 37.82  L 22.366360831422 37.82  C 23.7657491857798 37.82  24.9107033142202 36.6717647058823  24.9107033887615 35.2683660379902  L 24.9107033887615 32.7167320012255  Z M 24.9107033887615 44.199084942402  C 24.9107033887615 42.7956862745098  23.7657492603211 41.6474509803922  22.366360831422 41.6474509803922  L 19.8220183486239 41.6474509803922  C 18.4226299942661 41.6474509803922  17.2776758658257 42.7956862745098  17.2776758658257 44.199084942402  L 17.2776758658257 46.7507189791667  C 17.2776758658257 48.1541176470588  18.4226299942661 49.3023529411765  19.8220183486239 49.3023529411765  L 22.366360831422 49.3023529411765  C 23.7657491857798 49.3023529411765  24.9107033142202 48.1541176470588  24.9107033887615 46.7507189791667  L 24.9107033887615 44.199084942402  Z M 24.9107033887615 55.6814378835784  C 24.9107033887615 54.2780392156863  23.7657492603211 53.1298039215686  22.366360831422 53.1298039215686  L 19.8220183486239 53.1298039215686  C 18.4226299942661 53.1298039215686  17.2776758658257 54.2780392156863  17.2776758658257 55.6814378835784  L 17.2776758658257 58.2330719203431  C 17.2776758658257 59.6364705882353  18.4226299942661 60.7847058823529  19.8220183486239 60.7847058823529  L 22.366360831422 60.7847058823529  C 23.7657491857798 60.7847058823529  24.9107033142202 59.6364705882353  24.9107033887615 58.2330719203431  L 24.9107033887615 55.6814378835784  Z M 37.6324158772936 55.6814378835784  C 37.6324158772936 54.2780392156863  36.4874617488532 53.1298039215686  35.0880733944954 53.1298039215686  L 32.5437309116973 53.1298039215686  C 31.1443425573395 53.1298039215686  29.9993884288991 54.2780392156863  29.9993883543578 55.6814378835784  L 29.9993883543578 58.2330719203431  C 29.9993883543578 59.6364705882353  31.1443424827982 60.7847058823529  32.5437309116973 60.7847058823529  L 35.0880733944954 60.7847058823529  C 36.4874617488532 60.7847058823529  37.6324158772936 59.6364705882353  37.6324158772936 58.2330719203431  L 37.6324158772936 55.6814378835784  Z M 50.9902140424312 48.1541176470588  L 46.7920489048165 43.9439215686275  C 47.6825688073395 42.4129411764706  48.3186544094037 40.6267974105392  48.3186544094037 38.7130719203431  C 48.3186544094037 33.3546405477941  43.9932721215596 28.8892810955882  38.5229357798165 28.8892810208333  C 33.1798165137615 28.8892810208333  28.7272171502294 33.2270588235294  28.7272171502294 38.7130719203431  C 28.7272171502294 44.0715032928922  33.0525994380734 48.536862745098  38.5229357798165 48.536862745098  C 40.4311926605505 48.536862745098  42.2122323910551 48.0265359227941  43.7388378956422 47.0058823529412  L 47.9370030332569 51.2160784313726  C 48.5730886353211 51.8539869031863  49.7180427637615 51.8539869031863  50.354128440367 51.2160784313726  L 50.9902140424312 50.5781699595588  C 51.6262996444954 49.9402614877451  51.6262996444954 48.7920261936275  50.9902140424312 48.1541176470588  Z M 45.6470947763761 38.5854901960784  C 45.5198776261468 42.5405229007353  42.3394495412844 45.7300653345588  38.5229357798165 45.7300653345588  C 34.5792048681193 45.7300653345588  31.3987767832569 42.5405228259804  31.3987767832569 38.5854901960784  C 31.3987767832569 34.6304574914216  34.5792049426605 31.440915057598  38.5229357798165 31.440915057598  C 42.4666666169725 31.440915057598  45.6470947763761 34.6304575661765  45.6470947763761 38.5854901960784  Z " fill-rule="nonzero" fill="#77a2ff" stroke="none" transform="matrix(1 0 0 1 857 391 )" />
  </g>
</svg>