<?xml version="1.0" encoding="utf-8"?>
<svg version="1.1" xmlns:xlink="http://www.w3.org/1999/xlink" width="62px" height="61px" xmlns="http://www.w3.org/2000/svg">
  <g transform="matrix(1 0 0 1 -87 -391 )">
    <path d="M 61 20.8915032928922  C 61.7752750558252 18.0847058823529  59.4638187451456 15.7882352941176  56.638705526699 15.7882352941176  L 47.6497087378641 15.7882352941176  C 47.007637565534 7.2402614129902  40.0732686334951 0.478431372549018  31.5979288276699 0.478431372549018  C 23.1225890218446 0.478431372549018  16.1882200898058 7.24026141299019  15.546148842233 16  L 5.27300970873786 16  C 2.44789641504854 15.7882352941176  0.136440104368925 18.0847058823529  1 20.8915032928922  L 1 55.3385621164216  C 0.136440104368925 58.1453595269608  2.44789641504854 60.4418301151961  5.27300970873786 60  L 56.638705526699 60  C 59.4638188203883 60.4418300404412  61.775275131068 58.1453594522059  61 55.3385621164216  L 61 20.8915032928922  Z M 18.1144336820388 16  C 18.884919118932 9.15398690318627  25.1772168786408 3.03006533455882  31.5979288276699 3.03006533455882  C 37.8902265873786 3.03006533455882  44.3109385364078 9.15398690318627  44.9530097087379 16  L 18.1144336820388 16  Z M 4 32  L 4 20  L 58 20  L 58 32  L 4 32  Z M 58 56  L 4 56  L 4 33  L 58 33  L 58 56  Z " fill-rule="nonzero" fill="#77a2ff" stroke="none" transform="matrix(1 0 0 1 87 391 )" />
  </g>
</svg>