<?xml version="1.0" encoding="utf-8"?>
<svg version="1.1" xmlns:xlink="http://www.w3.org/1999/xlink" width="62px" height="61px" xmlns="http://www.w3.org/2000/svg">
  <g transform="matrix(1 0 0 1 -224 -391 )">
    <path d="M 22.4805177742718 43.646204595297  L 30.1853721432039 50.0884488700495  L 43.5404530995146 38.2347194467822  L 41.9994822257282 36.9462706522277  L 30.313786407767 47.640396039604  L 24.0214886480582 42.2289108910891  L 22.4805177742718 43.646204595297  Z M 61 20.8406600408416  C 61.7752750558252 17.8772277227723  59.4638187451456 15.6868646361386  56.638705526699 15.6868647116337  L 47.6497087378641 15.6868647116337  C 47.007637565534 7.05425742574258  40.0732686334951 0.225478573019803  31.5979288276699 0.225478573019803  C 23.1225890218446 0.225478573019803  16.1882200898058 7.05425742574257  15.546148842233 16  L 5.27300970873786 16  C 2.44789641504854 15.6868647116337  0.136440104368925 18.0060726324257  1 20.8406600408416  L 1 55.6287788527228  C 0.136440104368925 58.4633663366337  2.44789641504854 60.7825742574257  5.27300970873786 60  L 56.638705526699 60  C 59.4638188203883 60.7825742574257  61.775275131068 58.4633663366337  61 55.6287788527228  L 61 20.8406600408416  Z M 18.1144336820388 16  C 18.6280906650485 8.34270629579208  24.535145631068 2.54468649381188  31.5979288276699 2.54468649381188  C 38.6607120242719 2.54468649381188  44.4393528009709 8.34270629579208  45.081423973301 16  L 18.1144336820388 16  Z M 58 33  L 58 57  L 4 57  L 4 33  L 58 33  Z M 58 20  L 58 31  L 4 31  L 4 20  L 58 20  Z " fill-rule="nonzero" fill="#77a2ff" stroke="none" transform="matrix(1 0 0 1 224 391 )" />
  </g>
</svg>