<?xml version="1.0" encoding="utf-8"?>
<svg version="1.1" xmlns:xlink="http://www.w3.org/1999/xlink" width="52px" height="58px" xmlns="http://www.w3.org/2000/svg">
  <g transform="matrix(1 0 0 1 -540 -396 )">
    <path d="M 51 6.41786944072165  C 51.4182375229885 2.84618556701031  48.613026770115 0.039862592783507  45.0427586206897 0  L 6.78988505747126 0  C 3.21961683333333 0.039862518041237  0.414406155172415 2.84618556701031  1 6.41786944072165  L 1 40.8591065541237  L 15.7155555804598 57  L 45.0427586206897 57  C 48.6130268448276 57.4419243737113  51.4182375229885 54.6356013247423  51 51.0639175257732  L 51 6.41786944072165  Z M 17 39  L 17 53.61512025  L 4.23969351149426 39  L 17 39  Z M 47 4  L 47 53  L 20 53  L 20 40.8591065541237  C 19.5408429367816 38.690584242268  17.8832183908046 37.0323024304124  15.7155555804598 37  L 5 37  L 5 4  L 47 4  Z M 25.1512643678161 35.5015807809278  L 25.4062835 35.6291408685567  L 40.9624521321839 18.7912027242268  L 39.049808454023 17.0053608247423  L 25.0237547643678 32.1850171572165  L 13.9304214310345 23.2558075850516  L 12.4003064885057 25.2967697345361  L 25.1512643678161 35.5015807809278  Z " fill-rule="nonzero" fill="#77a2ff" stroke="none" transform="matrix(1 0 0 1 540 396 )" />
  </g>
</svg>