<?xml version="1.0" encoding="utf-8"?>
<svg version="1.1" xmlns:xlink="http://www.w3.org/1999/xlink" width="54px" height="58px" xmlns="http://www.w3.org/2000/svg">
  <g transform="matrix(1 0 0 1 -739 -394 )">
    <path d="M 47.391999975 28.3582130335052  L 53.792000025 21.980206185567  L 47.391999975 15.6021993376289  L 47.391999975 21  L 29.472 21  L 29.472 24  L 47.391999975 24  L 47.391999975 28.3582130335052  Z M 44 43.6654295283505  L 44 53  L 4 53  L 4 5  L 44.832 5  L 44.832 13.0509965386598  L 48.672 13.0509965386598  L 48.672 6.67298969072165  C 48.672 3.10130581701031  45.855999975 0.294982842783509  42.272000025 1  L 6.432 1  C 2.847999975 0.294982842783509  0.0320000250000007 3.10130589175258  0 6.67298969072165  L 0 51.3190377757732  C 0.0320000250000007 54.8907216494845  2.84800005 57.6970446237113  6.432 57  L 42.272000025 57  C 45.85600005 57.6970446984536  48.672 54.8907216494845  48.672 51.3190377757732  L 48.672 43.6654295283505  L 44 43.6654295283505  Z M 13 44.9410309278351  L 16 44.9410309278351  L 16 11.7753952139175  L 13 11.7753952139175  L 13 44.9410309278351  Z M 30.752000025 33  L 30.752000025 28.3582130335052  L 24.351999975 34.7362199561856  L 30.752000025 41.1142268041237  L 30.752000025 36  L 48.672 36  L 48.672 33  L 30.752000025 33  Z " fill-rule="nonzero" fill="#77a2ff" stroke="none" transform="matrix(1 0 0 1 739 394 )" />
  </g>
</svg>