<?xml version="1.0" encoding="utf-8"?>
<svg version="1.1" xmlns:xlink="http://www.w3.org/1999/xlink" width="52px" height="65px" xmlns="http://www.w3.org/2000/svg">
  <g transform="matrix(1 0 0 1 -404 -391 )">
    <path d="M 10.4806201802326 39.4814814814815  C 10.4806201802326 39.8666666666667  10.7386046511628 40.1234567650463  11.1255813953488 40  L 40.7937984244186 40  C 41.1807751686047 40.1234567650463  41.4387596395349 39.8666666666667  41.4387597151163 39.4814814814815  L 41.4387597151163 38.1975308391204  C 41.4387597151163 37.8123456539352  41.180775244186 37.5555555555556  40.7937984244186 37  L 11.1255813953488 37  C 10.7386046511628 37.5555555555556  10.4806201802326 37.8123456539352  10.4806201802326 38.1975308391204  L 10.4806201802326 39.4814814814815  Z M 31.1193798197674 45.9012345428241  C 31.1193798197674 45.5160493576389  30.7324030755814 45.2592592592593  30.4744186046512 45  L 11.1255813953488 45  C 10.7386046511628 45.2592592592593  10.4806201802326 45.5160493576389  10.4806201802326 45.9012345428241  L 10.4806201802326 47.1851851851852  C 10.4806201802326 47.5703703703704  10.7386046511628 47.82716046875  11.1255813953488 47  L 30.4744186046512 47  C 30.8613953488372 47.82716046875  31.1193798197674 47.5703703703704  31.1193798197674 47.1851851851852  L 31.1193798197674 45.9012345428241  Z M 41.4387597151163 30.4938271354167  C 41.4387597151163 30.1086419502315  41.0517829709302 29.8518518518519  40.7937984244186 30  L 11.1255813953488 30  C 10.7386046511628 29.8518518518519  10.4806201802326 30.1086419502315  10.4806201802326 30.4938271354167  L 10.4806201802326 31.7777777777778  C 10.4806201802326 32.162962962963  10.7386046511628 32.4197530613426  11.1255813953488 32  L 40.7937984244186 32  C 41.1807751686047 32.4197530613426  41.4387596395349 32.162962962963  41.4387597151163 31.7777777777778  L 41.4387597151163 30.4938271354167  Z M 51 15.7283950868056  C 51.7581395348837 12.9037037037037  49.4362790697674 10.5925925925926  46.5984495872093 10.5925925925926  L 41.1807751686047 10.5925925925926  C 40.2778294069767 7.63950619791667  37.5689921976744 5.45679009837963  34.3441860465116 5.45679009837963  L 33.3122480872093 5.45679009837963  C 32.280310127907 2.50370370370371  29.4424806453488 0.320987604166669  25.9596899476744 0.32098767939815  C 22.6058915232558 0.32098767939815  19.7680620406977 2.50370370370371  18.6071318081395 5.45679009837963  L 17.5751937732558 5.45679009837963  C 14.3503875465116 5.45679009837963  11.6415503372093 7.63950612268519  10.7386046511628 10.5925925925926  L 5.32093023255814 10.5925925925926  C 2.48310075 10.5925925925926  0.161240284883725 12.9037037037037  1 15.7283950868056  L 1 59.3827160243056  C 0.161240284883725 62.2074074074074  2.48310075 64.5185185185185  5.32093023255814 64  L 46.5984495872093 64  C 49.4362790697674 64.5185185185185  51.7581395348837 62.2074074074074  51 59.3827160243056  L 51 15.7283950868056  Z M 13.5764341337209 15.8567900983796  L 13.5764341337209 12.0049382465278  C 13.5764341337209 10.9777777777778  14.2213953488372 10.0790123206019  15.1243411104651 10.0790123206019  L 19.8970542383721 10.0790123206019  C 19.8970542383721 9.82222222222222  19.7680619651163 9.56543204861111  19.7680620406977 9.30864195023148  C 19.7680620406977 5.97037037037037  22.47689925 3.27407407407408  25.8306976744186 3.27407407407408  C 29.1844960988372 3.27407407407408  31.8933333081395 5.97037037037037  31.8933333081395 9.30864195023148  C 31.8933333081395 9.56543204861111  31.8933333081395 9.82222222222222  31.7643411104651 10.0790123206019  L 36.5370542383721 10.0790123206019  C 37.44 10.0790123206019  38.0849612151163 10.9777777777778  38.0849612151163 12.0049382465278  L 38.0849612151163 15.8567900983796  C 38.0849612151163 16.8839505671296  37.44 17.7827160243056  36.5370542383721 18  L 15.1243411104651 18  C 14.2213953488372 17.7827160243056  13.5764341337209 16.8839505671296  13.5764341337209 15.8567900983796  Z M 47 14.4444444444444  L 47 60  L 4 60  L 4 14.4444444444444  L 10.4806201802326 14.4444444444444  C 10.8675969244186 18.0395061979167  13.8344186046512 20.864197505787  17.5751937732558 21  L 34.3441860465116 21  C 38.0849612151163 20.864197505787  41.0517829709302 18.0395061226852  41.4387597151163 14.4444444444444  L 47 14.4444444444444  Z M 36.6660465116279 51.5506173090278  L 32.7962790697675 48.5975308391204  L 32.0223255813954 51.037037037037  L 35.2471318081395 53.4765432349537  L 37.3110077267442 55.0172839756944  L 45.0505426104651 44.7456789872685  L 42.9866666918605 43.2049382465278  L 36.6660465116279 51.5506173090278  Z " fill-rule="nonzero" fill="#77a2ff" stroke="none" transform="matrix(1 0 0 1 404 391 )" />
  </g>
</svg>